<?xml version="1.0" encoding="utf-8"?>
<!-- Generator: Adobe Illustrator 27.1.0, SVG Export Plug-In . SVG Version: 6.00 Build 0)  -->
<svg version="1.1" id="Capa_1" xmlns="http://www.w3.org/2000/svg" xmlns:xlink="http://www.w3.org/1999/xlink" x="0px" y="0px"
	 viewBox="0 0 998.1 389" style="enable-background:new 0 0 998.1 389;" xml:space="preserve">
<style type="text/css">
	.st0{fill:#9146FF;}
</style>
<g>
	<path class="st0" d="M198.7,138c1.3-3.4,1.8-5.6,1.5-6.6c-0.5-2.1-4.2-3.9-6.4-3.6l-1.7,0.2l-11.4,0.9c-5.6,0.8-6.9,3-8.8,7.3
		c-1.2,2.7-12,31.1-32.4,85.3c-26.2,4.6-50.7,8.6-73.5,11.8c5.6-14.6,21.8-55.5,27.7-70.6c3.8-9.7,5.8-15.3,6.2-16.6
		c0.3-1.3,0.4-2.3,0.3-2.9c-0.3-1.4-2.3-2.1-3.4-3.2c-2.7-2.7-4.8-4-10.3-3.2c-2.4,0.3-4.8,1.4-7.2,3.1
		c-6.9,6.5-21.6,19.1-31.7,25.1c-5,2.9-9.3,4.6-13,5.2c-4.6,0.7-14.9,0.6-15.7-3c-0.2-0.8,2.3-2.1,2.1-2.8c-0.2-1-2-1.3-5.2-0.8
		c-3.2,0.5-6.3,2.3-9.3,5.5c-2.9,3.2-3.9,7.2-2.8,11.8c2.5,10.4,16.4,14.3,27.6,12.7c13.7-2,25.1-8.3,34.3-18.9
		c-10.4,23.6-19.1,44.8-26.1,63.3l-7.2,1.3c-3.4,0.5-23.4,2.4-26.5,2.6l-3.5-0.4c-2,0.3-2.7,1.5-2.1,3.8c0.2,1.1,1.1,3.3,2.9,6.6
		c5.4,10.5,9.7,11.3,22.1,9.5c2.1-0.2,4-0.4,5.7-0.6c0,0.2-21.2,53.5-21.2,53.5c-1.4,4.2-2.5,8-3.2,11.4c-0.7,3.5-0.8,6.2-0.3,8.2
		c0.7,3,2.9,4.2,6.6,3.7c0.8-0.1,0.8-0.9,1.1-0.9l1.3,0.6l3-0.3c1.9-0.3,3-1.5,4.1-1.6c0.6-0.1,2.6,2.1,3.7,1.9
		c0.7-0.1,1.5-0.4,2.6-0.8c1-0.4,6.7-16.1,16.9-46.8c4.8-14.1,8.6-25.1,11.4-32.8l27.5-3.8c15.3-2.2,30.8-4.7,46.5-7.3
		c-14.9,41.6-23,65.7-24.2,72.1c-0.3,1.9-0.4,3.4-0.1,4.5c0.7,2.8,3.1,3.9,7.4,3.3l6.9-2l0.8-0.1l2.1-0.7l2.1,0.1l3.2-1.4l1.9,0.1
		c1.1-0.2,0.7-1.1,1.2-1.7c0.2-0.3,8.3-23.5,24.3-69.7c9.3-26.6,20.1-55.6,32.4-86.9C194.2,150,197.4,141.4,198.7,138z"/>
	<path class="st0" d="M384.1,163.9c9.6-1.4,18-15.2,15.8-24.5c-1.1-4.5-4.6-6.7-9.2-6c-10.2,1.5-18.1,14.2-15.7,24.1
		C376.1,162.4,379.2,164.6,384.1,163.9z"/>
	<path class="st0" d="M507.7,225.2c-1,0.1-1.7,0.5-2.2,0.9c-0.4,0.5-1.6,2.3-3.5,5.5c-1.9,3.2-3.9,6.4-6,9.5
		c-2.9,4.2-9.3,12.9-15.8,13.8c-2.6,0.4-4.4-1.7-5.5-6.3c-0.4-1.5-0.5-2.7-0.4-3.5c-0.6-14,5.4-39.5,9.2-50.9
		c2.2-6.6,3.7-10.6,4.5-11.8c0.8-1.2,1-3,0.4-5.4c-1-4.3-4.8-6-11.2-5.1c-7,1-7.6,3-9.9,8.5c-3.1-5-10.7-6.6-18.6-5.5
		c-11.9,1.7-23.7,9-35.3,21.9c-5.5,6.1-10.3,12.7-14.5,19.9c-5.6,9.7-10.5,22.8-9.7,37.1c-0.3,0.5-0.6,0.9-1,1.5
		c-3.6,5.7-11.1,14.6-20.1,15.9c-3.9,0.6-6.2-0.6-6.9-3.4c-1.7-7.2,3.4-15.5,4.9-21.4c12.2-37.1,18.1-56.6,17.6-58.5
		c-1-4.4-8-9.1-12.8-8.4c-2.7,0.4-6.1,2.8-10.3,7.1c-4.2,4.4-7.6,8.6-10.3,12.9c-2.7,4.2-3.9,6.8-3.7,7.6c0.3,1.3,6.8,6,7.1,7
		c0.1,0.6-1.2,5-4.2,13.1c-2.9,8.1-5.7,16.9-8.3,26.3c-0.5,2-1,3.8-1.4,5.6c-0.8,1.2-1.6,2.3-2.6,3.8c-3.8,5.7-11.6,15-20.7,16.3
		c-6.7,1-14.6-2.6-16.1-8.8c-1-4.1-0.7-10.9-1.2-14c10.1-16.7,20.4-35.4,30.9-56c11.9-23.3,22.4-45.3,29.2-69.9
		c2.9-10.7,3.8-18.4,2.7-23.1c-2.1-8.8-10.1-13.2-18.8-11.9c-13.3,1.9-28.4,22.1-45.3,60.5c-10.1,22.9-21.7,66.4-19.1,102.4
		c-0.2,0-0.3-0.2-0.5-0.1c-0.9,0.1-1.8,0.6-2.5,1.5c-18.6,24.3-33.1,42.7-43.5,55.3c4.2-17.3,12.8-45.1,25.7-83.3
		c4.4-13,6.8-20.1,7.2-21.5c0.4-1.4,0.5-2.5,0.3-3.3c-0.4-1.5-2.6-2.8-3.7-3.8c-1.1-0.9-8-1.3-10-1c-1.1,0.2-2.1,0.7-2.8,1.7
		c-1.2,1.2-1.8,1.9-2.7,3.6c-1.8,3.6-3.3,6.9-4.8,10.7c-7,18.1-25.5,47.4-38.2,62.3c-6.4,7.5-10.7,11.4-13,11.8
		c-0.7,0.1-1.1-0.2-1.3-0.8c-1.7-7.2,19.1-65.5,17.5-72.3c-1-4.3-7.9-8.7-11.8-8.1c-1.5,0.2-2.8,1.8-3.9,4.6
		c-2.7,7.1-7,23.9-10,31.5c-1.9,6.2-4,12.7-6.3,19.4c-4.5,13-9.5,23.1-6,38.2c2.2,9.2,9.8,13.5,18.1,12.3l0.9-0.1
		c6.3-1.6,12.3-5.6,18-12.1c5.7-6.5,11.6-14.7,17.7-24.6c-6.9,24.4-10.5,37-10.9,37.8c-0.3,0.8-2.7,4.2-6.9,10.3
		c-4.3,6.1-7.7,11.7-10.3,16.8c-6.7,13.6-9,24.9-6.9,34c1.8,7.7,6.7,11.1,14.5,9.9c6.2-0.9,8.4-2.5,12.3-8.1c5.3-7.6,8-16,10.8-24.9
		c1.3-4.1,2.1-6.4,2.4-6.9c16.1-25.6,34.1-49.3,53.8-71.2c4.3,14.9,14.6,23.5,30.3,21.3c8-1.1,16-4.5,23.9-10
		c2.7-1.9,5.2-4.1,7.6-6.5c1.6,1.6,3.4,3.1,5.6,4.5c5.9,3.7,12.2,5.1,19,4.1c6.7-1,14.1-4.7,21.9-11.1c2.1-1.7,4-3.6,5.7-5.5
		c4.9,6.1,12.3,9.6,21.1,8.3c5.8-0.8,12.5-5,20.2-12.6c7.7-7.6,14-16.4,18.9-26.4c-0.8,4-0.6,8.5,0.5,13.4
		c2.7,11.3,12.3,18.6,24.7,16.8c6.9-1,13.7-5.4,20.5-13.3c6.8-7.9,10.9-14.4,12.2-19.5c0.3-1.1,0.1-2.9-0.5-5.5
		C512.9,232,511.3,224.7,507.7,225.2z M305,187.5c3.3-10.7,9.4-25.3,18.1-43.8c8.8-18.5,14.6-28,17.6-28.4c0.9-0.1,1.4,0.4,1.7,1.7
		c1.4,5.8-3.9,22.4-15.8,49.6c-11.9,27.3-21.5,47.4-28.8,60.6C299.3,211.5,301.7,198.2,305,187.5z M447.5,222.2
		c-2.6,4.9-8.2,12.7-16.9,23.4c-8.7,10.8-14.3,16.3-16.7,16.7c-1.7,0.2-2.9-1.1-3.6-4c-0.7-2.9,0.3-8.7,3.1-17.2
		c2.8-8.6,6.2-16.1,10.4-22.6c11.8-18.1,25.1-28.2,39.6-30.3C455.6,205.5,450.3,216.9,447.5,222.2z"/>
	<path class="st0" d="M762.2,43.5c1.3-3.4,1.8-5.6,1.5-6.6c-0.5-2.1-4.2-3.9-6.4-3.6l-1.7,0.2l-11.4,0.9c-5.6,0.8-6.9,3-8.8,7.3
		c-1.2,2.7-12,31.1-32.4,85.3c-26.2,4.6-50.7,8.6-73.5,11.8c5.6-14.6,21.8-55.5,27.7-70.6c3.8-9.7,5.8-15.3,6.2-16.6
		c0.3-1.3,0.4-2.3,0.3-2.9c-0.3-1.4-2.3-2.1-3.4-3.2c-2.7-2.7-4.8-4-10.3-3.2c-2.4,0.3-4.8,1.4-7.2,3.1
		c-6.9,6.5-21.6,19.1-31.7,25.1c-5,2.9-9.3,4.6-13,5.2c-4.6,0.7-14.9,0.6-15.7-3c-0.2-0.8,2.3-2.1,2.1-2.8c-0.2-1-2-1.3-5.2-0.8
		c-3.2,0.5-6.3,2.3-9.3,5.5c-2.9,3.2-3.9,7.2-2.8,11.8c2.5,10.4,16.4,14.3,27.6,12.7c13.7-2,25.1-8.3,34.3-18.9
		c-10.4,23.6-19.1,44.8-26.1,63.3l-7.2,1.3c-3.4,0.5-23.4,2.3-26.5,2.6l-3.5-0.4c-2,0.3-2.7,1.5-2.1,3.8c0.2,1.1,1.1,3.3,2.9,6.6
		c5.4,10.5,9.7,11.3,22.1,9.5c2.1-0.2,4-0.4,5.7-0.6c0,0.2-21.2,53.5-21.2,53.5c-1.4,4.2-2.5,8-3.2,11.4c-0.7,3.5-0.8,6.2-0.3,8.2
		c0.7,3,2.9,4.2,6.6,3.7c0.8-0.1,0.8-0.9,1.1-0.9l1.3,0.6l3-0.3c1.9-0.3,3-1.5,4.1-1.6c0.6-0.1,2.6,2.1,3.7,1.9
		c0.7-0.1,1.5-0.4,2.6-0.8c1-0.4,6.7-16.1,16.9-46.8c4.8-14.1,8.6-25.1,11.4-32.8l27.5-3.8c15.3-2.2,30.8-4.7,46.5-7.3
		c-14.9,41.6-23,65.7-24.2,72.1c-0.3,1.9-0.4,3.4-0.1,4.5c0.7,2.8,3.1,3.9,7.4,3.3l6.9-2l0.8-0.1l2.1-0.7l2.1,0.1l3.2-1.4l1.9,0.1
		c1.1-0.2,0.7-1.1,1.2-1.7c0.2-0.3,8.3-23.5,24.3-69.7c9.3-26.6,20.1-55.6,32.4-86.9C757.6,55.4,760.9,46.9,762.2,43.5z"/>
	<path class="st0" d="M996.5,148.8c-1.1-4.8-2.8-7.1-5-6.8c-0.7,0.1-1.6,0.7-2.7,1.8c-9.7,9.7-22.4,29.8-42,32.7
		c-11.3,1.6-17.8-0.8-19.3-7.3c-0.9-3.7,6.5-11.7,22.2-24.1c0.8-0.6,2.5-1.6,5.1-3c3-1.6,9.7-6.7,8.8-10.2c-0.6-2.5-5.6-7-7.5-7.6
		c-0.5-0.1-1.7,0-3.3,0.2c-2.8,0.4-14,6.3-17,6.7c-2,0.3-3.1,0.1-3.2-0.6c-0.5-2,1.5-5.4,6-10.3c7.1-7.7,12.2-13,20.7-17.3
		c0,1.4,0.1,2.8,0.5,4.2c0.7,3.2,2.2,4.6,5.7,4.1c11.3-1.6,20.1-12.9,17.5-24c-1.2-5-9.6-6.5-14.7-5.8c-11.8,1.7-24.2,7.6-37.3,17.6
		c-8.5,6.4-20.2,19.9-17.2,32.4c2.3,9.6,4.1,13,11.5,15c-9.6,5.3-15.5,11.4-17.8,18.1c-0.7,1-1.4,1.9-2.2,3.1
		c-3.8,5.7-11.6,15-20.7,16.3c-6.7,1-14.6-2.6-16.1-8.8c-1-4.1-0.7-10.9-1.2-14c10.1-16.7,20.4-35.4,30.9-56
		c11.9-23.3,22.4-45.3,29.2-69.9c2.9-10.7,3.8-18.4,2.7-23.1C927.9,3.3,919.8-1,911.2,0.2c-13.3,1.9-28.4,22.1-45.3,60.5
		c-10.1,22.9-21.7,66.7-19.1,102.7c-0.1,0.1-0.3,0.1-0.4,0.2c-0.4,0.5-1.6,2.3-3.5,5.5c-1.9,3.2-3.9,6.4-6,9.5
		c-2.9,4.2-9.3,12.9-15.8,13.8c-2.6,0.4-4.4-1.7-5.5-6.3c-0.4-1.5-0.5-2.7-0.4-3.5c-0.6-14,5.4-39.5,9.2-50.9
		c2.2-6.6,3.7-10.6,4.5-11.8c0.8-1.2,1-3,0.4-5.4c-1-4.3-4.8-6-11.2-5.1c-7,1-7.6,3-9.9,8.5c-3.1-5-10.7-6.6-18.6-5.5
		c-11.9,1.7-23.7,9-35.3,21.9c-5.5,6.1-10.3,12.7-14.5,19.9c-6.8,11.7-12.7,28.6-8.5,46.3c3.1,13,13.2,21.7,26.6,19.8
		c5.8-0.8,12.5-5,20.2-12.6c7.7-7.6,14-16.4,18.9-26.4c-0.8,4-0.6,8.5,0.5,13.4c2.7,11.3,12.3,18.6,24.7,16.8
		c6.9-1,13.7-5.4,20.5-13.3c3.6-4.2,6.4-7.9,8.5-11.3c5,12.1,14.8,18.8,28.8,16.8c8-1.1,16-4.5,23.9-10c3.1-2.1,5.9-4.7,8.5-7.4
		c7.5,7.5,20.7,9.7,34.8,7.7c16.3-2.3,31.8-12.1,46.6-29.2C998.8,159.4,998.9,158.8,996.5,148.8z M788.4,159.7
		c-2.6,4.9-8.2,12.7-16.9,23.4c-8.7,10.8-14.3,16.3-16.7,16.7c-1.7,0.2-2.9-1.1-3.6-4c-0.7-2.9,0.3-8.7,3.1-17.2
		c2.8-8.6,6.2-16.1,10.4-22.6c11.8-18.1,25.1-28.2,39.6-30.3C796.5,142.9,791.2,154.3,788.4,159.7z M872.9,92.3
		c3.3-10.7,9.4-25.3,18.1-43.8c8.8-18.5,14.6-28,17.6-28.4c0.9-0.1,1.4,0.4,1.7,1.7c1.4,5.8-3.9,22.4-15.8,49.6
		c-11.9,27.3-21.5,47.4-28.8,60.6C867.2,116.3,869.6,103.1,872.9,92.3z"/>
</g>
</svg>
